<?xml version="1.0" encoding="UTF-8"?>
<svg xmlns="http://www.w3.org/2000/svg" viewBox="0 0 128 128" role="img" aria-labelledby="t d">
  <title id="t">Justice Scale — Fire and Ice</title>
  <desc id="d">Compact icon showing a stylized balance scale with fire on the left and ice on the right.</desc>
  <defs>
    <linearGradient id="ice" x1="0" y1="0" x2="1" y2="1">
      <stop offset="0%" stop-color="#8AF3FF"/>
      <stop offset="100%" stop-color="#00B4FF"/>
    </linearGradient>
    <linearGradient id="fire" x1="0" y1="1" x2="1" y2="0">
      <stop offset="0%" stop-color="#FF5A3D"/>
      <stop offset="100%" stop-color="#FFA000"/>
    </linearGradient>
    <linearGradient id="steel" x1="0" y1="0" x2="0" y2="1">
      <stop offset="0%" stop-color="#DCE3EA"/>
      <stop offset="100%" stop-color="#8BA1B4"/>
    </linearGradient>
  </defs>

  <rect width="100%" height="100%" fill="none"/>
  <!-- mast -->
  <rect x="60" y="16" width="8" height="56" rx="3" fill="url(#steel)"/>
  <path d="M64 8 L70 20 L58 20 Z" fill="url(#ice)"/>
  <!-- beam -->
  <path d="M28 36 H100 L96 42 H32 Z" fill="url(#steel)"/>
  <!-- chains -->
  <path d="M40 42 C42 52, 42 52, 50 58" stroke="#8BA1B4" stroke-width="2" fill="none"/>
  <path d="M88 42 C86 52, 86 52, 78 58" stroke="#8BA1B4" stroke-width="2" fill="none"/>
  <!-- left pan + flame -->
  <g transform="translate(36,58)">
    <rect x="0" y="0" width="28" height="5" rx="2.5" fill="#3B4958"/>
    <path d="M14 0 v-5" stroke="#8BA1B4" stroke-width="2"/>
    <path d="M14 0 C10 -5, 18 -7, 16 -14 C22 -11, 22 -4, 14 0 Z" fill="url(#fire)"/>
  </g>
  <!-- right pan + snowflake -->
  <g transform="translate(92,58)">
    <rect x="-28" y="0" width="28" height="5" rx="2.5" fill="#3B4958"/>
    <path d="M-14 0 v-5" stroke="#8BA1B4" stroke-width="2"/>
    <g transform="translate(-14,-2) scale(0.8)">
      <path d="M0 -8 L0 8 M-8 0 L8 0 M-6 -6 L6 6 M-6 6 L6 -6" stroke="url(#ice)" stroke-width="2.2" stroke-linecap="round"/>
    </g>
  </g>
</svg>

