<?xml version="1.0" encoding="UTF-8"?>
<svg xmlns="http://www.w3.org/2000/svg" viewBox="0 0 720 160" role="img" aria-labelledby="title desc">
  <title id="title">The Cold Line — Justice Scale Fire/Ice Wordmark</title>
  <desc id="desc">A modern wordmark with a stylized balance scale; left pan has fire, right pan has ice.</desc>
  <defs>
    <linearGradient id="iceGrad" x1="0" y1="0" x2="1" y2="1">
      <stop offset="0%" stop-color="#8AF3FF"/>
      <stop offset="100%" stop-color="#00B4FF"/>
    </linearGradient>
    <linearGradient id="fireGrad" x1="0" y1="1" x2="1" y2="0">
      <stop offset="0%" stop-color="#FF5A3D"/>
      <stop offset="100%" stop-color="#FFA000"/>
    </linearGradient>
    <linearGradient id="steelGrad" x1="0" y1="0" x2="0" y2="1">
      <stop offset="0%" stop-color="#DCE3EA"/>
      <stop offset="100%" stop-color="#8BA1B4"/>
    </linearGradient>
    <filter id="crispShadow" x="-20%" y="-20%" width="140%" height="140%">
      <feDropShadow dx="0" dy="2" stdDeviation="2" flood-color="#0B1524" flood-opacity="0.35"/>
    </filter>
  </defs>

  <!-- Background guide (transparent) -->
  <rect width="100%" height="100%" fill="none"/>

  <!-- Icon: Justice scale with fire/ice -->
  <g transform="translate(32,20)" filter="url(#crispShadow)">
    <!-- Mast -->
    <rect x="104" y="6" width="8" height="76" rx="3" fill="url(#steelGrad)"/>
    <!-- Icicle finial -->
    <path d="M108 0 L114 12 L102 12 Z" fill="url(#iceGrad)"/>
    <!-- Crossbeam (faceted/icy) -->
    <path d="M56 28 L160 28 L156 34 L60 34 Z" fill="url(#steelGrad)"/>

    <!-- Chains -->
    <path d="M76 34 C78 50, 78 50, 88 58" stroke="#8BA1B4" stroke-width="2" fill="none"/>
    <path d="M140 34 C138 50, 138 50, 128 58" stroke="#8BA1B4" stroke-width="2" fill="none"/>

    <!-- Left pan (fire) -->
    <g transform="translate(68,58)">
      <rect x="0" y="0" width="40" height="6" rx="3" fill="#3B4958"/>
      <path d="M20 0 v-6" stroke="#8BA1B4" stroke-width="2"/>
      <!-- flame -->
      <path d="M20 0 C14 -6, 26 -10, 22 -20 C30 -16, 30 -6, 20 0 Z" fill="url(#fireGrad)"/>
    </g>

    <!-- Right pan (ice) -->
    <g transform="translate(124,58)">
      <rect x="-40" y="0" width="40" height="6" rx="3" fill="#3B4958"/>
      <path d="M-20 0 v-6" stroke="#8BA1B4" stroke-width="2"/>
      <!-- snowflake (simple) -->
      <g transform="translate(-20,-2) scale(0.9)">
        <path d="M0 -10 L0 10 M-10 0 L10 0 M-7 -7 L7 7 M-7 7 L7 -7" stroke="url(#iceGrad)" stroke-width="2.5" stroke-linecap="round"/>
      </g>
    </g>
  </g>

  <!-- Wordmark: THE COLD LINE -->
  <g transform="translate(220,34)">
    <!-- Use custom geometric paths to avoid font licensing and ensure consistency -->
    <!-- THE -->
    <g fill="#E8F3FF">
      <path d="M0 0 H48 V8 H28 V56 H20 V8 H0 Z"/>
      <path d="M56 0 H64 V24 H88 V0 H96 V56 H88 V32 H64 V56 H56 Z"/>
      <path d="M104 0 H144 V8 H124 V24 H140 V32 H124 V48 H144 V56 H104 Z"/>
    </g>
    <!-- COLD -->
    <g transform="translate(168,0)">
      <path d="M0 28 C0 8 12 0 28 0 H44 V8 H28 C16 8 8 14 8 28 C8 42 16 48 28 48 H44 V56 H28 C12 56 0 48 0 28 Z" fill="#E8F3FF"/>
      <rect x="56" y="0" width="8" height="56" fill="#E8F3FF"/>
      <path d="M80 0 H120 V8 H88 V48 H120 V56 H80 Z" fill="#E8F3FF"/>
      <path d="M132 0 H156 C172 0 184 8 184 28 C184 48 172 56 156 56 H132 Z M140 8 V48 H156 C168 48 176 42 176 28 C176 14 168 8 156 8 Z" fill="#E8F3FF"/>
    </g>
    <!-- LINE -->
    <g transform="translate(388,0)">
      <path d="M0 0 H8 V48 H40 V56 H0 Z" fill="#E8F3FF"/>
      <path d="M56 0 H64 V56 H56 Z" fill="#E8F3FF"/>
      <path d="M80 0 H88 L128 40 V0 H136 V56 H128 L88 16 V56 H80 Z" fill="#E8F3FF"/>
      <path d="M156 0 H196 V8 H164 V24 H188 V32 H164 V48 H196 V56 H156 Z" fill="#E8F3FF"/>
    </g>
  </g>

  <!-- Accent underline with ice shards -->
  <g transform="translate(220,108)">
    <rect x="0" y="0" width="460" height="4" rx="2" fill="url(#iceGrad)"/>
    <path d="M60 0 L66 14 L72 0 Z M140 0 L146 12 L152 0 Z M260 0 L266 16 L272 0 Z M380 0 L386 10 L392 0 Z" fill="url(#iceGrad)" opacity="0.85"/>
  </g>
</svg>

